<svg width="90" height="20" viewBox="0 0 90 20" fill="none" xmlns="http://www.w3.org/2000/svg">
<path d="M1.07078 16.5654L2.8132 16.088V6.99397C2.8132 6.58024 2.78138 6.30973 2.71773 6.18243C2.65408 6.03921 2.487 5.91191 2.21648 5.80052L0.975302 5.10833L1.11851 3.15108C3.5054 2.801 5.80477 2.62597 8.01661 2.62597C9.73517 2.62597 11.1196 2.801 12.1698 3.15108C13.22 3.48525 13.9838 4.01832 14.4612 4.75029C14.9545 5.46636 15.2011 6.42111 15.2011 7.61456C15.2011 8.60114 14.9465 9.46837 14.4373 10.2163C13.9281 10.9482 13.2041 11.5131 12.2653 11.911L16.0843 18.0691L16.0604 19H11.7163L8.1837 12.627L7.13347 12.6031V15.2765C7.13347 15.6584 7.15733 15.905 7.20507 16.0164C7.26872 16.1119 7.41194 16.2233 7.63471 16.3506L8.66107 16.9473L8.5656 19H1.19012L1.07078 16.5654ZM8.66107 9.92984C9.50444 9.92984 10.125 9.85027 10.5228 9.69115C10.682 9.11829 10.7615 8.43405 10.7615 7.63843C10.7615 6.8428 10.5865 6.2779 10.2364 5.94374C9.90225 5.60957 9.33736 5.44249 8.54173 5.44249C8.09618 5.44249 7.64267 5.46636 7.1812 5.5141V9.78662C7.59493 9.8821 8.08822 9.92984 8.66107 9.92984ZM22.4532 19.2864C20.5914 19.2864 19.1513 18.7215 18.1329 17.5917C17.1304 16.4619 16.6292 14.9025 16.6292 12.9134C16.6292 11.529 16.8758 10.3436 17.3691 9.35698C17.8624 8.35449 18.5625 7.59069 19.4696 7.06557C20.3766 6.54046 21.4348 6.2779 22.6441 6.2779C24.4422 6.2779 25.8187 6.85075 26.7734 7.99646C27.7441 9.14216 28.2056 10.7732 28.1578 12.8896L20.9017 14.2262C21.1245 14.8946 21.4348 15.3878 21.8326 15.7061C22.2463 16.0084 22.7873 16.1596 23.4557 16.1596C23.9171 16.1596 24.4661 16.096 25.1026 15.9687C25.7391 15.8254 26.3836 15.6345 27.036 15.3958L27.585 17.7588C26.9962 18.2044 26.2324 18.5704 25.2936 18.8568C24.3547 19.1432 23.4079 19.2864 22.4532 19.2864ZM24.2433 10.8846C24.2115 10.2799 24.0365 9.84232 23.7182 9.5718C23.4159 9.28538 22.9862 9.14216 22.4293 9.14216C21.9678 9.14216 21.5302 9.20581 21.1165 9.33311C20.7823 10.1128 20.6312 10.9562 20.663 11.8632L24.2433 10.8846ZM29.339 16.7325L30.8188 16.3028V10.5027C30.8188 10.1526 30.795 9.92984 30.7472 9.83436C30.6995 9.72297 30.5722 9.60363 30.3653 9.47633L29.3151 8.90348L29.3867 7.11331L30.0312 6.99397C31.9884 6.59615 33.4364 6.38133 34.3753 6.34951C34.5026 6.68367 34.606 7.02579 34.6856 7.37587C35.5449 6.97805 36.2768 6.69958 36.8815 6.54046C37.5021 6.36542 38.067 6.2779 38.5762 6.2779C39.1968 6.2779 39.7776 6.39724 40.3186 6.63593C40.8597 6.85871 41.2654 7.16105 41.5359 7.54295C42.443 7.0974 43.2545 6.77915 43.9706 6.5882C44.7025 6.38133 45.3947 6.2779 46.0472 6.2779C47.352 6.2779 48.3147 6.65185 48.9353 7.39974C49.5559 8.14763 49.8662 9.28538 49.8662 10.813V15.5151C49.8662 15.8493 49.89 16.0721 49.9378 16.1835C49.9855 16.2949 50.1208 16.4142 50.3435 16.5415L51.4893 17.2098L51.3938 19H44.9015L44.7821 16.7325L45.9278 16.3983V11.8871C45.9278 11.2028 45.9039 10.7175 45.8562 10.4311C45.8244 10.1287 45.6971 9.89801 45.4743 9.73888C45.2515 9.56385 44.8776 9.47633 44.3525 9.47633C43.9387 9.47633 43.2465 9.54793 42.2759 9.69115C42.3077 9.94575 42.3236 10.3197 42.3236 10.813V15.5151C42.3236 15.8493 42.3475 16.0721 42.3952 16.1835C42.443 16.2949 42.5862 16.4142 42.8249 16.5415L43.9944 17.2098L43.899 19H37.3589L37.2395 16.7325L38.3853 16.3983V11.8871C38.3853 11.1869 38.3614 10.6936 38.3136 10.4072C38.2818 10.1049 38.1545 9.87414 37.9317 9.71502C37.709 9.55589 37.343 9.47633 36.8338 9.47633C36.2768 9.47633 35.6006 9.54793 34.8049 9.69115V15.5151C34.8049 15.8493 34.8288 16.0721 34.8765 16.1835C34.9243 16.2949 35.0516 16.4142 35.2584 16.5415L36.428 17.2098L36.3325 19H29.4583L29.339 16.7325ZM53.324 1.33705L57.3817 0.26295L58.3603 3.89102L54.3265 4.98898L53.324 1.33705ZM52.3215 16.8041L53.9923 16.3028V10.5027C53.9923 10.1526 53.9605 9.92984 53.8968 9.83436C53.8491 9.72297 53.7138 9.60363 53.4911 9.47633L52.4408 8.90348L52.5602 7.11331C53.8809 6.85871 54.8993 6.67572 55.6154 6.56433C56.3474 6.43703 57.0157 6.36542 57.6204 6.34951C57.8272 7.03375 57.9545 7.54295 58.0023 7.87711V15.5151C58.0023 15.8493 58.0261 16.0721 58.0739 16.1835C58.1216 16.2949 58.2569 16.4142 58.4797 16.5415L59.6492 17.2098L59.5538 19H52.3931L52.3215 16.8041ZM60.6202 16.7086L62.1001 16.279V10.5027C62.1001 10.1526 62.0762 9.92984 62.0285 9.83436C61.9807 9.72297 61.8534 9.60363 61.6466 9.47633L60.5963 8.90348L60.6679 7.11331L61.1931 7.01784C63.2776 6.60411 64.7813 6.38133 65.7043 6.34951C65.8316 6.68367 65.935 7.04966 66.0146 7.44747C66.9852 7.00192 67.7729 6.69958 68.3776 6.54046C68.9982 6.36542 69.579 6.2779 70.12 6.2779C72.6501 6.2779 73.9152 7.78959 73.9152 10.813V15.4913C73.9152 15.8254 73.939 16.0482 73.9868 16.1596C74.0345 16.271 74.1698 16.3903 74.3925 16.5176L75.5382 17.186L75.4428 18.9761H68.855L68.7356 16.7086L69.9052 16.3744V11.8632C69.9052 11.1471 69.8813 10.6459 69.8336 10.3595C69.7858 10.073 69.6506 9.85027 69.4278 9.69115C69.221 9.53202 68.847 9.45246 68.306 9.45246C67.7331 9.45246 67.0091 9.53998 66.1339 9.71502V15.4913C66.1339 15.8254 66.1578 16.0482 66.2055 16.1596C66.2533 16.271 66.3806 16.3903 66.5874 16.5176L67.757 17.186L67.6615 18.9761H60.7396L60.6202 16.7086ZM80.9841 19.3103C79.4565 19.3103 78.263 18.7374 77.4037 17.5917C76.5445 16.446 76.1148 14.9105 76.1148 12.985C76.1148 10.7732 76.6956 9.10238 77.8572 7.97259C79.0348 6.8428 80.7056 6.2779 82.8697 6.2779C82.997 6.2779 83.4107 6.29381 84.1109 6.32564V4.89351C84.1109 4.54343 84.087 4.3127 84.0393 4.20131C83.9915 4.08992 83.8563 3.97058 83.6335 3.84328L82.5594 3.29429L82.6788 1.48026C84.2064 1.20975 85.3362 1.02675 86.0681 0.931278C86.8001 0.819889 87.3809 0.756239 87.8106 0.740327C87.9538 1.10632 88.0572 1.52004 88.1209 1.98151V15.5629C88.1209 15.8493 88.1447 16.0482 88.1925 16.1596C88.2561 16.271 88.3914 16.3824 88.5982 16.4938L89.5053 17.0428L89.4098 18.5226C87.8503 18.9204 86.3227 19.1591 84.827 19.2387C84.7156 18.9363 84.6042 18.5704 84.4928 18.1407C83.4107 18.9204 82.2412 19.3103 80.9841 19.3103ZM82.3685 16.2551C82.8936 16.2551 83.4823 16.08 84.1348 15.73V9.54793C83.6574 9.34107 83.0447 9.23764 82.2969 9.23764C81.6922 9.23764 81.1114 9.3172 80.5544 9.47633C80.4271 9.77867 80.3237 10.1924 80.2441 10.7175C80.1805 11.2426 80.1487 11.8234 80.1487 12.4599C80.1487 13.7648 80.3237 14.7275 80.6738 15.3481C81.0398 15.9527 81.6047 16.2551 82.3685 16.2551Z" fill="black"/>
</svg>
